<svg viewBox="0 0 1024 1024" xmlns="http://www.w3.org/2000/svg" id="a7b9e121-46c7-47d7-9e5a-9dea1629648e"><defs><style>.aae448e3-3820-4db0-8b6c-5202e77157a7{fill:#e61f19;opacity:0.2;}.a4da151b-d4e2-49e9-a6ed-75e9b68c2afd{fill:#040000;}.ac52c1ed-0af8-4c4d-b9db-c539bc9b1662{fill:#fff;}.bac404ac-dec8-498c-ac47-46aa684ae1dd{fill:#231815;}.e115b530-dfb1-4089-9352-734220872281{fill:none;}.aea8a7b9-f648-4a53-afc1-7c3500db95c4{fill:#fffdfd;}</style></defs><title>党建1024px尺寸</title><path d="M805.48,163C654.88-4.19,488.81,48.93,365.07,132.68c8.25,5.52,16.08,12.3,20.87,20.29a6.4,6.4,0,1,1-11,6.58c-4.36-7.26-12.66-13.74-21.33-19-3.18,2.24-6.34,4.5-9.45,6.77-125.7,91.76-57.66,258.41-57.66,258.41s42.53,55.05-117.9,136C101,575.86,79,642,88,688.18A121.07,121.07,0,0,0,98.63,718.9l38.66-34.11a6.4,6.4,0,1,1,8.46,9.6L105,730.32c26.52,42.48,77.77,74.93,134.42,74.93l515-19S908.81,723,810.36,567.43,964.71,339.79,805.48,163Z" class="aae448e3-3820-4db0-8b6c-5202e77157a7"></path><path d="M508.67,492.51C478.39,377.31,459,198.45,581.46,85.74a12.7,12.7,0,0,1,16.64-.55c42.55,35,222.51,211.59,59.69,586.47,0,0-29.87,64-12.8,136.54L602.32,821s38.93-56.62-31.47-179.53C544,594.57,522.41,544.78,508.67,492.51Z" class="a4da151b-d4e2-49e9-a6ed-75e9b68c2afd"></path><path d="M567.11,887.18l-16-14.12c94.75-60.91,96.42-296.19,96.42-296.19C633.23,434.47,678,356.72,678,356.72l37.26,15.82-27.73-27.9c23.46-79.45,81.13-104.8,95.93-129.3s-.86-42.88-.86-42.88c12.42,5.28,23.08,14.69,31.78,24.9,22.43,26.32,61,81.77,56.78,137.24S881.77,522.43,567.11,887.18Z" class="ac52c1ed-0af8-4c4d-b9db-c539bc9b1662"></path><path d="M567.11,889.31a2.1,2.1,0,0,1-1.41-.53l-16-14.12a2.13,2.13,0,0,1-.72-1.76,2.11,2.11,0,0,1,1-1.63c92.7-59.61,95.42-292.08,95.43-294.42-14.2-141.21,30.26-220.41,30.71-221.19a2.14,2.14,0,0,1,2.68-.9L706,366.32,686,346.15a2.14,2.14,0,0,1-.53-2.11c16.46-55.75,49.24-84.83,73.17-106.07,10-8.87,18.63-16.52,23-23.74,13.79-22.82-.06-39.68-.66-40.39a2.13,2.13,0,0,1,2.46-3.34c11.3,4.8,22.26,13.37,32.57,25.47,18.74,22,61.84,79.55,57.29,138.79-.29,3.72-.49,7.78-.71,12.23-2.95,60.1-9.85,200.83-303.81,541.59a2.13,2.13,0,0,1-1.47.73Zm-12.49-16,12.29,10.85c291.63-338.47,298.45-477.8,301.37-537.36.22-4.5.42-8.6.71-12.36,4.44-57.66-37.87-114.1-56.27-135.69-7.9-9.27-16.15-16.36-24.6-21.15,3.68,7.85,7.25,22.08-2.88,38.85-4.69,7.77-13.12,15.25-23.8,24.72C738.07,261.9,706.13,290.25,689.89,344l26.84,27a2.13,2.13,0,0,1-2.34,3.46l-35.47-15.05c-6.19,12-42.2,88.44-29.26,217.2A812.89,812.89,0,0,1,637,702.51C620.9,789.53,593.2,847,554.62,873.3Z" class="a4da151b-d4e2-49e9-a6ed-75e9b68c2afd"></path><path d="M551.12,875.2a2.14,2.14,0,0,1-1.22-3.89c80.3-56.21,125.36-186,177.54-336.25,15-43.2,30.51-87.88,47.55-132.67,38.78-101.95,38.43-158.62,31.31-188.21-7.63-31.69-24.45-39.69-24.62-39.77a2.15,2.15,0,0,1-1.06-2.82,2.11,2.11,0,0,1,2.81-1.07c2.94,1.31,71.24,34.4-4.46,233.39-17,44.73-32.51,89.38-47.5,132.55-52.42,151-97.69,281.34-179.13,338.35A2.13,2.13,0,0,1,551.12,875.2Z" class="a4da151b-d4e2-49e9-a6ed-75e9b68c2afd"></path><path d="M666,967.67s59.39-192,31.26-298.67c-16.58-62.83-78.15-230.4-275.06-200.53S250.29,643.4,337.81,639.14c81.31-4,249-48.44,325,119.77,10.74,23.76,14,52.45,9.43,79.66l-21.83,129.1Z" class="ac52c1ed-0af8-4c4d-b9db-c539bc9b1662"></path><path d="M666,969.8H650.38a2.12,2.12,0,0,1-2.1-2.49l21.82-129.1c4.53-26.79,1.15-55.37-9.26-78.42-65.12-144.1-197.79-130.63-285.59-121.73-13.53,1.37-26.3,2.67-37.33,3.21-35.82,1.72-64.18-21.6-67.57-55.5-2.46-24.61,8.53-49.48,30.94-70,26.56-24.36,68.26-41.43,120.59-49.37,194.56-29.5,258.83,131.51,277.45,202.1,28,106-30.69,297.92-31.28,299.84A2.13,2.13,0,0,1,666,969.8Zm-13.11-4.26h11.53c5.44-18.22,57.12-196.09,30.77-296-18.32-69.48-81.6-227.95-272.67-199C314.06,487,270.07,540.07,274.6,585.34c3.15,31.57,29.69,53.34,63.11,51.67,10.92-.53,23.64-1.83,37.11-3.19,89-9,223.52-22.69,289.91,124.21,10.91,24.16,14.32,52.88,9.58,80.89Z" class="a4da151b-d4e2-49e9-a6ed-75e9b68c2afd"></path><path d="M261,799.66s-183.47-320-64-460.8c0,0,149.33-34.13,247.46,238.94C517.38,780.72,418.85,829.53,261,799.66Z" class="ac52c1ed-0af8-4c4d-b9db-c539bc9b1662"></path><path d="M338.16,809.9q-34.47,0-77.57-8.14a2.11,2.11,0,0,1-1.45-1c-.46-.81-46.34-81.32-77-178C153.77,533.15,133,411,195.36,337.49a2.07,2.07,0,0,1,1.15-.7c1.56-.36,38.66-8.41,88.39,17.25,82.6,42.63,133.45,144.82,161.56,223,32.63,90.79,32.74,156.09.34,194.07C424.78,797,388.37,809.9,338.16,809.9Zm-75.8-12.15c89.3,16.74,150.27,6.87,181.19-29.37,31.34-36.73,31-100.61-1.11-189.86-27.8-77.36-78-178.42-159.18-220.53-44.82-23.24-79.89-18.12-85.13-17.18C84.92,475.63,252,779.34,262.36,797.75Z" class="a4da151b-d4e2-49e9-a6ed-75e9b68c2afd"></path><line y2="799.66" x2="388.99" y1="338.86" x1="196.99" class="ac52c1ed-0af8-4c4d-b9db-c539bc9b1662"></line><path d="M389,801.8a2.14,2.14,0,0,1-2-1.31L195,339.69A2.13,2.13,0,0,1,199,338l192,460.8a2.13,2.13,0,0,1-1.14,2.79A2,2,0,0,1,389,801.8Z" class="a4da151b-d4e2-49e9-a6ed-75e9b68c2afd"></path><path d="M325,671.66S162.85,466.86,94.59,449.8c0,0-8.54,29.86,4.26,46.93,0,0-8.53,17.07,8.54,34.13,0,0-8.54,34.14,12.8,46.94,0,0,4.26,34.13,21.33,46.93,0,0-8.53,25.6,12.8,34.13,0,0-4.27,25.6,21.33,34.14,0,0-8.53,29.86,25.6,38.4,0,0,8.54,29.86,34.14,34.13,0,0,12.8,29.87,38.4,29.87l72.53-29.87Z" class="ac52c1ed-0af8-4c4d-b9db-c539bc9b1662"></path><path d="M273.79,797.53c-24.21,0-37.25-24.56-39.88-30.1-23.15-4.57-32.44-28.55-34.34-34.27-10.77-2.92-18.47-8.26-22.88-15.9-5.26-9.11-4.28-18.82-3.53-22.89-21.28-8.16-21.54-28.21-21.12-34.17-18.16-8.39-14.39-29-13-34.67-15.19-12.59-20-40.65-20.87-46.45-19.36-12.54-14.49-41.28-13.16-47.55-14.29-15-10.23-30.15-8.62-34.51-12.26-17.81-4.25-46.57-3.9-47.81a2.14,2.14,0,0,1,2.57-1.48c28.73,7.18,76.45,46.87,141.86,118,48.56,52.78,89.29,104.14,89.7,104.65a2.1,2.1,0,0,1,.41.85l21.33,93.87a2.13,2.13,0,0,1-1.27,2.44L274.6,797.37A2.05,2.05,0,0,1,273.79,797.53ZM96.13,452.43c-1.58,6.89-5.71,29.51,4.43,43a2.14,2.14,0,0,1,.2,2.23c-.31.64-7.57,16,8.13,31.68a2.13,2.13,0,0,1,.57,2c-.08.33-7.89,32.76,11.82,44.59a2.13,2.13,0,0,1,1,1.56c0,.33,4.36,33.39,20.5,45.5a2.12,2.12,0,0,1,.74,2.37c-.32,1-7.62,23.81,11.57,31.48a2.14,2.14,0,0,1,1.31,2.33c-.15,1-3.61,23.93,19.91,31.77a2.12,2.12,0,0,1,1.37,2.6c0,.11-3.13,11.51,2.71,21.59,4,6.84,11.16,11.61,21.36,14.16a2.12,2.12,0,0,1,1.53,1.48c.09.29,8.5,28.63,32.44,32.62a2.14,2.14,0,0,1,1.61,1.26c.12.28,12.42,28.25,36,28.57l70.47-29L323,672.61C315.2,662.8,162.69,472.23,96.13,452.43Z" class="a4da151b-d4e2-49e9-a6ed-75e9b68c2afd"></path><path d="M743.12,842.33S922.36,859.4,888.19,936.2c-17.43,39.17-326.54,31.47-326.54,31.47S542,946.16,618.5,910.6c73.42-34.14,180.09-4.27,180.09-4.27" class="ac52c1ed-0af8-4c4d-b9db-c539bc9b1662"></path><path d="M623,970.46c-33.83,0-58-.57-61.41-.66a2.1,2.1,0,0,1-1.52-.69c-.16-.18-4-4.48-2.46-12.12,2.06-10.28,14.14-27,60-48.33,38.36-17.83,85.71-18.07,118.67-15.12a388.44,388.44,0,0,1,62.89,10.74,2.13,2.13,0,1,1-1.15,4.11c-1.06-.3-106.76-29.26-178.61,4.14-46.28,21.52-55.93,37.5-57.55,45.1a10.82,10.82,0,0,0,.93,7.93c86.36,2.09,309.69.71,323.46-30.23,5.73-12.89,5.48-24.84-.76-35.53-25.53-43.71-141.4-55.23-142.56-55.35a2.12,2.12,0,0,1-1.92-2.32,2.09,2.09,0,0,1,2.32-1.92c4.86.46,119.21,11.84,145.84,57.44,7,11.94,7.3,25.2,1,39.41C877.13,966.29,714.63,970.46,623,970.46Z" class="a4da151b-d4e2-49e9-a6ed-75e9b68c2afd"></path><path d="M986.32,852.93S864.26,550,643.82,709.53c0,0-89.63,78.59-1.66,140.46C748.26,924.62,858.17,691.14,986.32,852.93Z" class="ac52c1ed-0af8-4c4d-b9db-c539bc9b1662"></path><path d="M688.69,867.4c-16,0-31.85-4.48-47.76-15.67-25-17.55-38.24-38.18-39.48-61.31-2.35-44,39.2-80.94,41-82.49,58.91-42.64,116.17-56.28,170.35-40.66,113,32.58,174.92,183.35,175.53,184.87a2.13,2.13,0,0,1-3.65,2.12C912.76,763.5,847,798.87,783.43,833.09,750.94,850.56,719.64,867.4,688.69,867.4Zm80-202.11c-39.94,0-81.35,15.37-123.65,46-.26.24-41.61,37-39.36,79,1.17,21.75,13.84,41.27,37.67,58,44.59,31.36,90,6.94,138-18.91,62.19-33.46,126.4-68,196.58,10.38-18.31-38.08-75.73-142.21-166.41-168.35A154.2,154.2,0,0,0,768.72,665.29Z" class="a4da151b-d4e2-49e9-a6ed-75e9b68c2afd"></path><path d="M986.32,855.07a2.14,2.14,0,0,1-1.81-1C936,776.26,879.05,734.13,815.4,728.85c-109.07-9.09-201.89,94.49-202.81,95.54a2.14,2.14,0,1,1-3.2-2.83c.94-1.06,95.17-106.2,206.34-97,65.07,5.39,123.08,48.19,172.4,127.22a2.14,2.14,0,0,1-.68,2.94A2.2,2.2,0,0,1,986.32,855.07Z" class="a4da151b-d4e2-49e9-a6ed-75e9b68c2afd"></path><path d="M755.92,876.46c3-10.72-3.29-41.12-12.8-46.93-39.29-24-141.23-62.85-226.13-46.93-68.27,12.8-106.26-4.35-149.34,4.26-42.66,8.54-128,4.27-174.93,64s-4.78,93.6,51.2,89.6c59.73-4.26,204.8-4.26,204.8-4.26H687.65S741.73,926.72,755.92,876.46Z" class="a4da151b-d4e2-49e9-a6ed-75e9b68c2afd"></path><path d="M367.57,684.16h49a0,0,0,0,1,0,0v49.72a0,0,0,0,1,0,0h-49a5.55,5.55,0,0,1-5.55-5.55V689.71a5.55,5.55,0,0,1,5.55-5.55Z" class="ac52c1ed-0af8-4c4d-b9db-c539bc9b1662"></path><path d="M416.52,736H385.7a25.86,25.86,0,0,1-25.82-25.82v-2.34A25.86,25.86,0,0,1,385.7,682h30.82a2.13,2.13,0,0,1,2.13,2.14v49.71A2.13,2.13,0,0,1,416.52,736ZM385.7,686.29a21.58,21.58,0,0,0-21.55,21.56v2.34a21.58,21.58,0,0,0,21.55,21.55h28.69V686.29Z" class="a4da151b-d4e2-49e9-a6ed-75e9b68c2afd"></path><path transform="translate(1148.32 1418.03) rotate(180)" d="M569.38,684.16h15.11a16.92,16.92,0,0,1,16.92,16.92v15.87a16.92,16.92,0,0,1-16.92,16.92H569.38A22.48,22.48,0,0,1,546.9,711.4v-4.76a22.48,22.48,0,0,1,22.48-22.48Z" class="ac52c1ed-0af8-4c4d-b9db-c539bc9b1662"></path><path d="M577.72,736H546.9a2.14,2.14,0,0,1-2.13-2.14V684.16A2.14,2.14,0,0,1,546.9,682h30.82a25.85,25.85,0,0,1,25.82,25.83v2.34A25.85,25.85,0,0,1,577.72,736ZM549,731.74h28.68a21.58,21.58,0,0,0,21.56-21.55v-2.34a21.58,21.58,0,0,0-21.56-21.56H549Z" class="a4da151b-d4e2-49e9-a6ed-75e9b68c2afd"></path><path d="M585.25,706.07s-15.4-3.36-20.2,6.45" class="ac52c1ed-0af8-4c4d-b9db-c539bc9b1662"></path><path d="M565,714.65a2.08,2.08,0,0,1-.93-.22,2.13,2.13,0,0,1-1-2.85c5.48-11.19,21.88-7.75,22.58-7.59a2.13,2.13,0,0,1,1.63,2.53,2.15,2.15,0,0,1-2.54,1.63c-.14,0-13.83-2.87-17.84,5.31A2.14,2.14,0,0,1,565,714.65Z" class="a4da151b-d4e2-49e9-a6ed-75e9b68c2afd"></path><path d="M462.38,601.7h38.67a66.08,66.08,0,0,1,66.08,66.08v63.14a85.42,85.42,0,0,1-85.42,85.42h0a85.42,85.42,0,0,1-85.42-85.42V667.78a66.08,66.08,0,0,1,66.08-66.08Z" class="ac52c1ed-0af8-4c4d-b9db-c539bc9b1662"></path><path d="M484.63,818.47H478.8a84.74,84.74,0,0,1-84.64-84.64V601.7a2.14,2.14,0,0,1,2.14-2.14H567.13a2.13,2.13,0,0,1,2.13,2.14V733.83A84.73,84.73,0,0,1,484.63,818.47Zm-86.2-214.64v130A80.46,80.46,0,0,0,478.8,814.2h5.83A80.46,80.46,0,0,0,565,733.83v-130Z" class="a4da151b-d4e2-49e9-a6ed-75e9b68c2afd"></path><path d="M588.05,571.82c.07-.78.12-1.55.12-2.35,0-14.83-12.81-26.85-28.62-26.85a30.34,30.34,0,0,0-11.06,2.08c-8.69-8.45-21.73-13.84-36.33-13.84-15,0-28.41,5.73-37.09,14.62a42.46,42.46,0,0,0-28.76-11c-16.93,0-31.46,9.59-37.78,23.29a31.1,31.1,0,0,0-12.23-2.51c-16.16,0-29.53,12.35-32.11,28.55-11.58,5.22-19.53,15.79-19.53,28,0,14.07,10.51,26,25,30a35.34,35.34,0,0,0,62.84,6.65,39.71,39.71,0,0,0,49-5.11c7.51,10.78,19.42,17.78,32.87,17.78a39.35,39.35,0,0,0,27.72-11.66,50.2,50.2,0,0,0,25.27,6.77c26.4,0,47.8-19.9,47.8-44.44C615.12,594.18,604.05,579,588.05,571.82Z" class="a4da151b-d4e2-49e9-a6ed-75e9b68c2afd"></path><path d="M376.09,706.07s15.4-3.36,20.21,6.45" class="ac52c1ed-0af8-4c4d-b9db-c539bc9b1662"></path><path d="M396.3,714.65a2.13,2.13,0,0,1-1.92-1.2c-4-8.17-17.7-5.33-17.84-5.3a2.13,2.13,0,1,1-.9-4.16c.69-.16,17.1-3.59,22.57,7.59a2.13,2.13,0,0,1-1,2.85A2.08,2.08,0,0,1,396.3,714.65Z" class="a4da151b-d4e2-49e9-a6ed-75e9b68c2afd"></path><path d="M98.41,377.51c-16,0-33.78-9.47-34.71-10a2.14,2.14,0,0,1,2-3.76c.27.15,26.81,14.33,42.48,7.73a16.43,16.43,0,0,0,9-9.11c-5.79-1.39-10.74-5.15-12.85-9-1.5-2.72-1.54-5.43-.11-7.44,2.2-3.09,4.64-4.77,7.24-5,2.41-.18,4.75.85,7,3.09a16.55,16.55,0,0,1,4.36,14.55c6.63-.43,12-5.31,15.63-14.11a2.13,2.13,0,1,1,3.95,1.62C137,359.4,128.82,362.59,123,362.93c-.47,0-.93,0-1.38,0a21,21,0,0,1-11.71,12.48A29.49,29.49,0,0,1,98.41,377.51ZM112,345.26h-.21c-1.6.13-3.12,1.82-4.11,3.21-.6.84,0,2.17.37,2.89,1.64,2.95,5.74,5.95,10.45,7a12.33,12.33,0,0,0-3.11-11.22A5.16,5.16,0,0,0,112,345.26Z" class="bac404ac-dec8-498c-ac47-46aa684ae1dd"></path><path d="M948.82,605.82c-4.78,0-9.18-3.36-13.08-10-3.09-5.25-6.24-8-9.13-8.08h-.07c-3.64,0-6.73,4.29-7.9,6.15a29.4,29.4,0,0,1-6.44,7.6c-7.46,5.86-15.36,4.85-21.7-2.76-3.13-3.77-6.13-5.68-8.91-5.68s-4.93,1.91-6.27,3.52c-3,3.58-5.89,5.9-8.89,7.09-4.3,1.71-10.74,2.37-17-4.22-2.5-2.61-5-3.83-7.56-3.58-4.91.44-8.62,6-8.66,6a2.13,2.13,0,0,1-3.57-2.34c.2-.3,4.85-7.3,11.82-7.94,3.87-.34,7.6,1.28,11.05,4.88,3.74,3.91,7.91,5,12.4,3.2,2.32-.92,4.67-2.84,7.18-5.85,1.92-2.31,5.14-5.06,9.55-5.06,4.1,0,8.2,2.43,12.19,7.22,4.92,5.91,10.09,6.61,15.78,2.14a25.54,25.54,0,0,0,5.47-6.52c1.92-3,6-8.15,11.51-8.15h.13c4.52.07,8.81,3.49,12.75,10.18,3.07,5.24,6.24,7.89,9.4,7.89h.06c4.56,0,8.75-5.74,10-7.93a2.13,2.13,0,0,1,3.72,2.08c-.23.41-5.68,10-13.65,10.11Z" class="a4da151b-d4e2-49e9-a6ed-75e9b68c2afd"></path><path d="M948.82,631.13c-4.78,0-9.18-3.36-13.08-10-3.09-5.24-6.24-8-9.13-8.08h-.07c-3.64,0-6.73,4.3-7.9,6.16a29.34,29.34,0,0,1-6.44,7.59c-7.46,5.86-15.36,4.85-21.7-2.76-3.13-3.77-6.13-5.68-8.91-5.68s-4.93,1.92-6.27,3.52c-3,3.58-5.89,5.9-8.89,7.09-4.3,1.71-10.74,2.37-17-4.22-2.5-2.6-5-3.81-7.56-3.58-4.91.45-8.62,6-8.66,6a2.13,2.13,0,0,1-3.57-2.33c.2-.3,4.85-7.3,11.82-8,3.87-.36,7.6,1.28,11.05,4.88,3.74,3.91,7.91,5,12.4,3.21,2.32-.93,4.67-2.84,7.18-5.86,1.92-2.3,5.14-5,9.55-5,4.1,0,8.2,2.42,12.19,7.21,4.92,5.92,10.09,6.62,15.78,2.14A25.29,25.29,0,0,0,915,617c1.92-3.06,6-8.16,11.51-8.16h.13c4.52.06,8.81,3.49,12.75,10.18,3.07,5.23,6.24,7.88,9.4,7.88h.06c4.56,0,8.75-5.74,10-7.93a2.13,2.13,0,0,1,3.72,2.08c-.23.41-5.68,10-13.65,10.12Z" class="a4da151b-d4e2-49e9-a6ed-75e9b68c2afd"></path><path d="M305.89,184.13c-4.78,0-9.18-3.35-13.08-10-3.08-5.24-6.24-8-9.13-8.08h-.06c-3.64,0-6.74,4.3-7.9,6.16a29.22,29.22,0,0,1-6.45,7.6c-7.45,5.85-15.35,4.85-21.69-2.76-3.14-3.77-6.14-5.68-8.91-5.68h0c-2.75,0-4.93,1.91-6.26,3.52-3,3.58-5.89,5.9-8.89,7.09-4.31,1.7-10.75,2.36-17.06-4.22-2.5-2.61-5.07-3.84-7.57-3.58-4.87.45-8.6,6-8.64,6a2.13,2.13,0,1,1-3.57-2.33c.19-.3,4.84-7.3,11.81-7.94,3.87-.36,7.61,1.28,11.06,4.88,3.74,3.91,7.91,5,12.39,3.2,2.32-.92,4.67-2.84,7.19-5.85,1.92-2.31,5.13-5.06,9.54-5.06h0c4.1,0,8.2,2.43,12.19,7.22,4.92,5.91,10.08,6.61,15.77,2.13A24.9,24.9,0,0,0,272.1,170c1.94-3.08,5.95-8.15,11.64-8.15,4.53.06,8.81,3.49,12.75,10.18,3.08,5.23,6.24,7.89,9.4,7.89H306c4.57-.05,8.75-5.74,10-7.94a2.14,2.14,0,0,1,3.73,2.08c-.23.41-5.68,10-13.65,10.12Z" class="a4da151b-d4e2-49e9-a6ed-75e9b68c2afd"></path><path d="M305.89,209.45c-4.78,0-9.18-3.36-13.08-10-3.08-5.25-6.24-8-9.13-8.08h-.06c-3.64,0-6.74,4.3-7.9,6.15a29.06,29.06,0,0,1-6.45,7.6c-7.45,5.85-15.35,4.85-21.69-2.76-3.14-3.77-6.14-5.68-8.91-5.68h0c-2.75,0-4.93,1.92-6.26,3.52-3,3.58-5.89,5.9-8.89,7.09-4.31,1.7-10.75,2.36-17.06-4.22-2.5-2.61-5.07-3.84-7.57-3.58-4.87.45-8.6,6-8.64,6a2.13,2.13,0,1,1-3.57-2.33c.19-.3,4.84-7.3,11.81-7.95,3.87-.34,7.61,1.28,11.06,4.88,3.74,3.91,7.91,5,12.39,3.21,2.32-.93,4.67-2.84,7.19-5.86,1.92-2.3,5.13-5,9.54-5h0c4.1,0,8.2,2.42,12.19,7.21,4.92,5.91,10.08,6.61,15.77,2.14a24.9,24.9,0,0,0,5.47-6.51c1.94-3.08,5.95-8.14,11.64-8.16,4.53.07,8.81,3.49,12.75,10.19,3.1,5.26,6.38,7.82,9.46,7.88,4.57,0,8.75-5.74,10-7.93a2.14,2.14,0,0,1,3.73,2.08c-.23.41-5.68,10-13.65,10.12Z" class="a4da151b-d4e2-49e9-a6ed-75e9b68c2afd"></path><path d="M869,191.66a17.07,17.07,0,1,1,17.06-17.06A17.08,17.08,0,0,1,869,191.66Zm0-29.86a12.8,12.8,0,1,0,12.8,12.8A12.81,12.81,0,0,0,869,161.8Z" class="a4da151b-d4e2-49e9-a6ed-75e9b68c2afd"></path><path d="M348.45,289.8a21.34,21.34,0,1,1,21.34-21.34A21.36,21.36,0,0,1,348.45,289.8Zm0-38.4a17.07,17.07,0,1,0,17.07,17.06A17.08,17.08,0,0,0,348.45,251.4Z" class="a4da151b-d4e2-49e9-a6ed-75e9b68c2afd"></path><path d="M542.59,706.45a2.09,2.09,0,0,1-1.44-.56c-15.72-14.35-35.67-2.65-35.87-2.53a2.13,2.13,0,0,1-2.19-3.66c.23-.13,22.9-13.43,40.94,3a2.14,2.14,0,0,1-1.44,3.71Z" class="a4da151b-d4e2-49e9-a6ed-75e9b68c2afd"></path><path d="M478.74,763.14c-14.59,0-26.8-8.53-27-8.67a2.13,2.13,0,0,1,2.47-3.48c1.16.83,28.54,19.86,48.33-3.89a2.13,2.13,0,0,1,3.28,2.73C497.37,760,487.61,763.14,478.74,763.14Z" class="a4da151b-d4e2-49e9-a6ed-75e9b68c2afd"></path><path d="M525.52,746.33a36.27,36.27,0,1,1,36.27-36.27A36.31,36.31,0,0,1,525.52,746.33Zm0-68.27a32,32,0,1,0,32,32A32,32,0,0,0,525.52,678.06Z" class="a4da151b-d4e2-49e9-a6ed-75e9b68c2afd"></path><path d="M427.39,746.33a36.27,36.27,0,1,1,36.26-36.27A36.31,36.31,0,0,1,427.39,746.33Zm0-68.27a32,32,0,1,0,32,32A32,32,0,0,0,427.39,678.06Z" class="a4da151b-d4e2-49e9-a6ed-75e9b68c2afd"></path><path d="M461.52,707.93a2.13,2.13,0,0,1-1.18-3.91c13.66-9.12,31.25-.5,32-.13a2.14,2.14,0,0,1-1.91,3.82c-.15-.08-16.13-7.87-27.73-.14A2.12,2.12,0,0,1,461.52,707.93Z" class="a4da151b-d4e2-49e9-a6ed-75e9b68c2afd"></path><path d="M298.21,721.1S164.05,869.35,164.56,933.91s80.83,23,92.94-13.15,73.86-178.5,73.86-178.5Z" class="ac52c1ed-0af8-4c4d-b9db-c539bc9b1662"></path><path d="M191.41,969.79a34.13,34.13,0,0,1-5.32-.41c-10.68-1.69-23.45-9.22-23.66-35.45-.51-64.65,128.69-208.19,134.2-214.27a2.12,2.12,0,0,1,2.72-.36l33.16,21.16a2.13,2.13,0,0,1,.81,2.65c-.62,1.42-61.84,142.64-73.79,178.33C251.44,945.58,216.35,969.79,191.41,969.79ZM298.59,723.87c-13.35,15-132.37,150.26-131.9,210,.15,18.4,7.09,29.22,20.06,31.28,22.82,3.62,60.74-21.23,68.73-45.08,11.3-33.74,66.23-160.9,73.21-177Z" class="a4da151b-d4e2-49e9-a6ed-75e9b68c2afd"></path><path d="M342.05,675.93l29.87-34.13s38.4-17.07,51.2,17.06l8.53,38.4Z" class="ac52c1ed-0af8-4c4d-b9db-c539bc9b1662"></path><path d="M431.65,699.4a2.05,2.05,0,0,1-.49-.06L341.56,678a2.16,2.16,0,0,1-1.54-1.43,2.1,2.1,0,0,1,.43-2.05l29.86-34.14a2.31,2.31,0,0,1,.74-.54c.8-.35,19.72-8.6,36-1.76,8.3,3.47,14.37,10.21,18.05,20l8.62,38.69a2.18,2.18,0,0,1-.59,2A2.15,2.15,0,0,1,431.65,699.4ZM346,674.68l82.84,19.72L421,659.33C417.87,651,412.6,645,405.44,642c-13.35-5.61-29.47.42-32.24,1.55Z" class="a4da151b-d4e2-49e9-a6ed-75e9b68c2afd"></path><path d="M438.16,713.35c-2.36-25.92-20.88-48.21-46.4-53.35a57.09,57.09,0,0,0-11.31-1.14,77.14,77.14,0,0,0-10.27.68,58.85,58.85,0,0,0-34.47,17.63c-10.41,10.76-25.09,27.92-27.79,41.43l123.73,46.93,8.54-29.87Z" class="ac52c1ed-0af8-4c4d-b9db-c539bc9b1662"></path><path d="M431.65,767.66a2.15,2.15,0,0,1-.75-.13L307.16,720.59a2.13,2.13,0,0,1-1.33-2.41c2.74-13.73,16.93-30.68,28.35-42.49a61.23,61.23,0,0,1,35.72-18.27,68.12,68.12,0,0,1,22.28.49c25.84,5.2,45.62,27.92,48.1,55.24l2,22.32a2.28,2.28,0,0,1-.07.78l-8.54,29.87a2.1,2.1,0,0,1-2.05,1.54ZM310.43,717.27l119.81,45.44L438,735.46l-2-21.92h0c-2.31-25.46-20.69-46.61-44.69-51.45a63.73,63.73,0,0,0-20.88-.44,56.91,56.91,0,0,0-33.22,17C322.56,693.84,313.12,707.45,310.43,717.27Z" class="a4da151b-d4e2-49e9-a6ed-75e9b68c2afd"></path><path d="M371.92,779.4c-24.7,0-44.8-17.71-44.8-39.47s20.1-39.47,44.8-39.47,44.8,17.71,44.8,39.47S396.62,779.4,371.92,779.4Zm0-74.67c-22.35,0-40.53,15.79-40.53,35.2s18.18,35.2,40.53,35.2,40.53-15.79,40.53-35.2S394.27,704.73,371.92,704.73Z" class="a4da151b-d4e2-49e9-a6ed-75e9b68c2afd"></path><line y2="624.73" x2="222.59" y1="620.46" x1="192.72" class="ac52c1ed-0af8-4c4d-b9db-c539bc9b1662"></line><path d="M222.59,626.86a1.67,1.67,0,0,1-.31,0l-29.86-4.26a2.14,2.14,0,0,1,.6-4.23l29.87,4.27a2.13,2.13,0,0,1-.3,4.24Z" class="a4da151b-d4e2-49e9-a6ed-75e9b68c2afd"></path><line y2="646.06" x2="248.19" y1="654.6" x1="201.25" class="ac52c1ed-0af8-4c4d-b9db-c539bc9b1662"></line><path d="M201.25,656.73a2.13,2.13,0,0,1-.38-4.23L247.8,644a2.13,2.13,0,1,1,.77,4.19l-46.94,8.54A2.43,2.43,0,0,1,201.25,656.73Z" class="a4da151b-d4e2-49e9-a6ed-75e9b68c2afd"></path><line y2="663.13" x2="265.25" y1="701.53" x1="235.39" class="ac52c1ed-0af8-4c4d-b9db-c539bc9b1662"></line><path d="M235.38,703.66a2.08,2.08,0,0,1-1.3-.45,2.13,2.13,0,0,1-.38-3l29.87-38.4a2.13,2.13,0,0,1,3.37,2.62l-29.87,38.4A2.13,2.13,0,0,1,235.38,703.66Z" class="a4da151b-d4e2-49e9-a6ed-75e9b68c2afd"></path><rect height="38.28" width="987.19" y="929.4" x="18.4" class="ac52c1ed-0af8-4c4d-b9db-c539bc9b1662"></rect><path d="M1005.6,969.8H18.41a2.09,2.09,0,0,1-2.06-2.13V929.4a2.1,2.1,0,0,1,2.06-2.14H1005.6a2.1,2.1,0,0,1,2,2.14v38.27A2.09,2.09,0,0,1,1005.6,969.8ZM20.46,965.54h983.08v-34H20.46Z" class="a4da151b-d4e2-49e9-a6ed-75e9b68c2afd"></path><path d="M371.92,680.2c-2.12,0-4.21.11-6.28.28-.62,0-1.23.12-1.85.18-1.51.16-3,.36-4.48.6-.61.1-1.22.19-1.82.3-2,.37-3.91.79-5.81,1.31l-.42.13c-1.77.49-3.5,1-5.2,1.66-.61.22-1.21.46-1.81.69-1.27.5-2.52,1-3.75,1.58-.58.27-1.16.52-1.73.8-1.67.82-3.32,1.68-4.91,2.61-15.5,9.13-26.41,23.69-29.34,40.55h0c-.24,1.38-.46,2.77-.59,4.18a46,46,0,0,0-.28,4.86c0,33,30.57,59.73,68.27,59.73s68.27-26.74,68.27-59.73S409.62,680.2,371.92,680.2Z" class="a4da151b-d4e2-49e9-a6ed-75e9b68c2afd"></path><path d="M371.92,801.8c-38.82,0-70.4-27.76-70.4-61.87a47.64,47.64,0,0,1,.29-5.09c.13-1.44.36-2.88.61-4.31,3-17.1,14-32.42,30.36-42,1.64-1,3.33-1.85,5.06-2.69l1.34-.62.44-.2c1.26-.57,2.55-1.11,3.86-1.62.87-.34,1.36-.53,1.86-.71,1.75-.63,3.53-1.21,5.34-1.72l.44-.13c1.95-.53,3.95-1,6-1.34l1.87-.32c1.51-.25,3-.45,4.6-.61l1.9-.19c2.13-.17,4.27-.29,6.45-.29,38.82,0,70.4,27.76,70.4,61.87S410.74,801.8,371.92,801.8ZM351.25,683l.58,2.06c-1.72.47-3.4,1-5.05,1.61l-1.37.52c-1.62.63-2.83,1.14-4,1.69l-1.68.77c-1.63.79-3.23,1.62-4.77,2.53-15.24,9-25.56,23.22-28.32,39.08-.23,1.32-.44,2.65-.56,4a42.86,42.86,0,0,0-.27,4.67c0,31.76,29.66,57.6,66.13,57.6s66.13-25.84,66.13-57.6-29.66-57.6-66.13-57.6c-2.07,0-4.1.11-6.11.27l-1.37.14-.43,0c-1.47.15-2.92.35-4.36.58l-1.76.3c-1.92.36-3.81.77-5.66,1.27Z" class="a4da151b-d4e2-49e9-a6ed-75e9b68c2afd"></path><path d="M333.69,679.29c.69-.73,1.36-1.44,2-2.12a60.92,60.92,0,0,1,11.45-9.28c-.28-.17-.56-.3-.84-.49C336.5,660.85,334.22,671.87,333.69,679.29Z" class="e115b530-dfb1-4089-9352-734220872281"></path><path d="M371.09,650.45c-4.7-11.29-20.5-8.65-20.5-8.65-46.94,4.26-55.47,85.33-55.47,85.33l9.4,3.76a53.84,53.84,0,0,1,3.65-12.2l-.25-.09c2.53-12.66,15.58-28.51,25.77-39.31.53-7.42,2.81-18.44,12.63-11.89.28.19.56.32.84.49a17.08,17.08,0,0,0,14.64,1.4,15.19,15.19,0,0,0,9.67-9.88A13.14,13.14,0,0,0,371.09,650.45Z" class="ac52c1ed-0af8-4c4d-b9db-c539bc9b1662"></path><path d="M304.52,733a2.13,2.13,0,0,1-.79-.15l-9.4-3.76a2.12,2.12,0,0,1-1.33-2.2c.35-3.38,9.27-82.86,57.39-87.24.55-.09,17.38-2.74,22.67,10h0a15.21,15.21,0,0,1,.45,10.4,17.25,17.25,0,0,1-11,11.28,19.22,19.22,0,0,1-16.41-1.59,10.38,10.38,0,0,1-.93-.55c-2.29-1.53-4.08-2-5.31-1.38-2.1,1-3.56,5.27-4,11.65a2.13,2.13,0,0,1-.58,1.31c-10,10.56-22.3,25.55-25.07,37.53a1.94,1.94,0,0,1,0,1.26,52.48,52.48,0,0,0-3.51,11.72,2.13,2.13,0,0,1-2.1,1.76Zm-7.08-7.26,5.49,2.2a55.41,55.41,0,0,1,2.89-9.17,1.79,1.79,0,0,1,0-.61c2.57-12.88,15.32-28.65,25.79-39.8.67-7.84,2.8-12.69,6.33-14.42,2.7-1.32,5.92-.76,9.55,1.66l.77.44a14.91,14.91,0,0,0,12.85,1.21,13.17,13.17,0,0,0,8.31-8.48,11.08,11.08,0,0,0-.3-7.52c-4-9.61-18.05-7.4-18.19-7.37C309.7,647.66,299,714.52,297.44,725.76Z" class="a4da151b-d4e2-49e9-a6ed-75e9b68c2afd"></path><ellipse ry="38.4" rx="43.89" cy="739.93" cx="371.92" class="ac52c1ed-0af8-4c4d-b9db-c539bc9b1662"></ellipse><path d="M371.92,780.46c-25.38,0-46-18.18-46-40.53s20.64-40.53,46-40.53,46,18.18,46,40.53S397.29,780.46,371.92,780.46Zm0-76.8c-23,0-41.75,16.27-41.75,36.27s18.73,36.27,41.75,36.27,41.75-16.27,41.75-36.27S394.94,703.66,371.92,703.66Z" class="a4da151b-d4e2-49e9-a6ed-75e9b68c2afd"></path><path d="M815.65,897.8s-76.8-17.07-149.33,4.26c0,0-78.34-14.4-89.6,25.6h256" class="ac52c1ed-0af8-4c4d-b9db-c539bc9b1662"></path><path d="M834.85,930.66h-256A2.13,2.13,0,0,1,576.8,928c11.3-40.14,84.1-28.52,91.53-27.22,72.09-21,149.15-4.33,149.92-4.16a2.14,2.14,0,0,1-.93,4.17c-.76-.17-77.11-16.69-148.27,4.23a2.17,2.17,0,0,1-1,0c-.75-.14-72.84-12.93-86.26,21.37h253a2.14,2.14,0,1,1,0,4.27Z" class="a4da151b-d4e2-49e9-a6ed-75e9b68c2afd"></path><path d="M777,405.29a2.14,2.14,0,0,1,0-4.27l42.93-.29h0a2.14,2.14,0,0,1,0,4.27l-42.94.29Z" class="a4da151b-d4e2-49e9-a6ed-75e9b68c2afd"></path><path d="M794.32,362.33a2.14,2.14,0,0,1-.61-4.18l42.66-12.8a2.14,2.14,0,0,1,1.23,4.09l-42.67,12.8A2.15,2.15,0,0,1,794.32,362.33Z" class="a4da151b-d4e2-49e9-a6ed-75e9b68c2afd"></path><path d="M807.12,481.8H751.65a2.14,2.14,0,0,1,0-4.27h55.47a2.14,2.14,0,0,1,0,4.27Z" class="a4da151b-d4e2-49e9-a6ed-75e9b68c2afd"></path><path d="M785.78,379.4a2.12,2.12,0,0,1-1.33-.47L741.79,344.8a2.13,2.13,0,0,1,2.66-3.34l42.67,34.14a2.13,2.13,0,0,1-1.34,3.8Z" class="a4da151b-d4e2-49e9-a6ed-75e9b68c2afd"></path><path d="M760.19,443.4a2.14,2.14,0,0,1-1.44-.56l-46.93-42.66a2.13,2.13,0,1,1,2.87-3.16l46.93,42.67a2.13,2.13,0,0,1,.15,3A2.16,2.16,0,0,1,760.19,443.4Z" class="a4da151b-d4e2-49e9-a6ed-75e9b68c2afd"></path><path d="M636.45,575.66a2.11,2.11,0,0,1-2-1.5c-54.94-177.48-47.12-484-47-487.09A2.3,2.3,0,0,1,589.58,85a2.13,2.13,0,0,1,2.07,2.19c-.08,3.07-7.88,308.9,46.84,485.71a2.13,2.13,0,0,1-1.41,2.67A2.28,2.28,0,0,1,636.45,575.66Z" class="ac52c1ed-0af8-4c4d-b9db-c539bc9b1662"></path><path d="M598.05,319.66a2.22,2.22,0,0,1-.51-.06c-17.46-4.36-52.84-66.49-56.81-73.56a2.13,2.13,0,0,1,3.71-2.09c10.31,18.32,39.42,65.84,53.15,71.19,6.09-5.14,42.41-37.21,53.87-79.24a2.14,2.14,0,0,1,4.12,1.13c-12.84,47.06-55.76,81.82-56.19,82.17A2.2,2.2,0,0,1,598.05,319.66Z" class="ac52c1ed-0af8-4c4d-b9db-c539bc9b1662"></path><path d="M610.85,460.46c-13.21,0-64.17-68.25-74.25-81.93A2.14,2.14,0,0,1,540,376c22.33,30.31,60.5,78,70.19,80.12,5.55-4.35,45.81-37.87,49.69-96.06a2.18,2.18,0,0,1,2.27-2,2.13,2.13,0,0,1,2,2.27c-4.28,64.25-51.6,99.37-52.07,99.72A2.19,2.19,0,0,1,610.85,460.46Z" class="ac52c1ed-0af8-4c4d-b9db-c539bc9b1662"></path><path d="M589.52,641.8s-12.8,34.13-8.53,42.66c0,0-4.27-4.26-12.8,0V654.6Z" class="a4da151b-d4e2-49e9-a6ed-75e9b68c2afd"></path><path d="M429.07,614.48c-18.91,0-31.75-4-38.24-12a19.46,19.46,0,0,1-3.9-16.71,2.14,2.14,0,0,1,4.11,1.16,15.09,15.09,0,0,0,3.16,12.92c4.68,5.71,16.45,12,45.83,10a2.11,2.11,0,0,1,2.28,2,2.13,2.13,0,0,1-2,2.28C436.37,614.34,432.62,614.48,429.07,614.48Z" class="aea8a7b9-f648-4a53-afc1-7c3500db95c4"></path><path d="M453,614.06a2.13,2.13,0,1,1,0-4.26c12.15,0,26.08-1.37,28.35-3.64a2.13,2.13,0,1,1,3,3C479.7,613.83,457.41,614.06,453,614.06Z" class="aea8a7b9-f648-4a53-afc1-7c3500db95c4"></path><rect height="1024" width="1024" class="e115b530-dfb1-4089-9352-734220872281"></rect></svg>